<svg xmlns="http://www.w3.org/2000/svg" viewBox="0 0 607.29 99.04" xmlns:v="https://vecta.io/nano"><style><![CDATA[.I{fill:#f67253}.J{fill:none}.K{fill:#fff}.L{stroke:#f62d00}.M{stroke-linejoin:round}.N{stroke-linecap:round}]]></style><g class="L M"><path d="M106.9 78.86a7.68 7.68 0 0 0-7.68 7.69v11.9h15.36v-11.9a7.68 7.68 0 0 0-7.68-7.69z" class="I"/><g class="K"><path d="M118.53 88.38a4 4 0 0 0-4 4v6.12h7.9v-6.17a4 4 0 0 0-4-4zm-23.26 0a4 4 0 0 0-4 4v6.12h7.9v-6.17a3.94 3.94 0 0 0-3.94-4z"/><path d="M110.85 66.03h58.25v32.42h-58.25z"/></g><path d="M158 66.03h11.1v32.51H158zm-29.4 13.46h11.38v19.05H128.6z" class="I"/><path d="M.5 98.54h606.29" class="J N"/><circle cx="458.32" cy="81.32" r="8.38" class="K"/><path d="M458.32 98.45V86.78" class="J N"/><circle cx="437.2" cy="84.71" r="6.72" class="K"/><path d="M437.2 98.45v-9.36" class="J N"/><path d="M144.93 73.36h5.67v5.5h-5.67zm-28 0h5.67v5.5h-5.67z" class="I"/><path d="M552.83 40.97h21.84v57.48h-21.84z" class="K"/><path d="M574.67 40.97h6.21v57.48h-6.21z" class="I"/><g class="K"><path d="M557.55 46.7h12.41v51.75h-12.41z"/><path d="M560.26 84.86h6.98v13.58h-6.98zm1.36-47.48h4.5v3.58h-4.5z"/></g><path d="M566.12 37.38h4.02v3.58h-4.02z" class="I"/><path d="M472.79 78.86h57.67v19.58h-57.67z" class="J"/><path d="M530.46 78.86h8.75v19.58h-8.75zm-49.54 3.97h6v6.73h-6zm11.8 0h6v6.73h-6zm11.8 0h6v6.73h-6zm11.81 0h6v6.73h-6z" class="I"/><path d="M477.94 74.38h47.36v4.49h-47.36z" class="J"/><path d="M525.3 74.38h6.48v4.49h-6.48z" class="I"/><g class="K"><path d="M180.8 78.86a7.68 7.68 0 0 0-7.68 7.69v11.9h15.36v-11.9a7.68 7.68 0 0 0-7.68-7.69z"/><path d="M192.43 88.38a4 4 0 0 0-4 4h0v6.12h7.9v-6.17a4 4 0 0 0-3.95-4zm-23.26 0a4 4 0 0 0-3.95 4v6.12h7.9v-6.17a4 4 0 0 0-4-4zM17.46 86.65h11.33v11.79H17.46z"/></g><path d="M40.12 78.86h7.67v19.58h-7.67z" class="I"/><path d="M28.79 78.86h11.33v19.58H28.79zm15.17 7.79h11.33v11.79H43.96z" class="K"/><path d="M55.29 86.65h6.87v11.79h-6.87z" class="I"/><path d="M32.62 82.65v12m3.67-12v12" class="J N"/></g><g opacity=".25" stroke-width=".48" class="J L M"><path d="M17 63.6h15.33s-7.66-7.88-15.33 0z"/><path d="M14.52 63.6H21s-3.23-3.35-6.48 0z"/></g><g opacity=".5" stroke-width=".56" class="J L M"><path d="M449.83 48.18h16.58s-8.29-8.53-16.58 0z"/><path d="M459.42 48.18H476s-8.28-8.53-16.58 0z"/></g><g opacity=".25" stroke-width=".43" class="J L M"><path d="M574.62 3.17h12.9s-6.45-6.64-12.9 0z"/><path d="M581.93 3.17h9.12s-4.56-4.69-9.12 0z"/></g></svg>