<svg xmlns="http://www.w3.org/2000/svg" viewBox="0 0 658.1 325.93" xmlns:v="https://vecta.io/nano"><style><![CDATA[.H{stroke-linejoin:round}.I{stroke:#f62d00}.J{fill:#fff}.K{stroke-width:1.78}.L{fill:#f67253}.M{stroke-width:1.79}.N{fill:none}.O{stroke-linecap:round}]]></style><g class="I N H"><path d="M94.91 299.5l519.05.83m-566.98-.9l26.58.04" class="K O"/><path d="M308.944 299.84l.203-128.94 139.98.22-.203 128.94z" class="M"/></g><path d="M191.039 324.391l.259-165.14 87.84.138-.259 165.14z" class="H I J M"/><path d="M278.873 324.525l.259-165.14 19.03.03-.259 165.14zm-69.606-127.728l.034-21.64 19.52.031-.034 21.64zm32.261.05l.034-21.64 19.52.031-.034 21.64zm-32.311 35.165l.034-21.64 19.52.031-.034 21.64zm32.25.051l.034-21.64 19.52.031-.034 21.64z" class="L H I M"/><path d="M510.225 324.893l.174-110.87 65.25.102-.174 110.87z" class="H I J M"/><g class="L H I"><path d="M575.464 324.997l.174-110.87 22.22.035-.174 110.87zm-51.713-81.798l.025-16.08 14.5.023-.025 16.08zm23.958.04l.025-16.08 14.5.023-.025 16.08zm-23.998 26.121l.025-16.08 14.5.023-.025 16.08zm23.948.04l.025-16.08 14.5.023-.025 16.08z" class="M"/><path d="M387.25.93L366.42.89l-.03 17.32 10.18.02-26.1 42.29 36.68.06 36.68.06L387.25.93z" class="K"/></g><g class="M H I"><path d="M323.726 324.595l.377-240.31 84.43.133-.377 240.31z" class="J"/><path d="M408.166 324.738l.377-240.31 16.96.027-.377 240.31zM388.295 84.401l.037-23.82 16.96.027-.037 23.82z" class="L"/></g><g class="N H I"><path d="M344 306.32l.24-196.25m21.78 196.29l.23-196.26m21.78 196.29l.23-196.25" class="K O"/><path d="M344.277 84.33l.037-23.82 44.02.069-.037 23.82z" class="M"/></g><g class="K H I"><path d="M366.42.89l-36.78 59.6 36.69.06 36.68.06L366.42.89z" class="J"/><circle cx="448.97" cy="263.41" r="30.04" class="L"/><path d="M448.88 324.8l.07-41.82" class="N O"/><path d="M495.31 183.16s-23.68 65.64-23.71 87.65 7.52 35.73 23.52 35.76 23.6-13.68 23.63-35.69-23.44-87.72-23.44-87.72z" class="J"/><path d="M495.09 324.88l.06-41.82m-329.59 41.29l.12-73.05" class="N O"/><path d="M138.34 246.19c-5.592-.006-10.133 4.518-10.15 10.11h0 20.27a10.13 10.13 0 0 0-10.12-10.15z" class="J"/><path d="M138.31 266.45a10.13 10.13 0 0 0 10.15-10.11h0-20.27a10.13 10.13 0 0 0 10.12 10.15z" class="L"/><path d="M193 246.27c-5.596-.006-10.139 4.524-10.15 10.12h0 20.27c-.011-5.585-4.535-10.109-10.12-10.12z" class="J"/><path d="M193 266.54a10.13 10.13 0 0 0 10.15-10.12h0-20.27c.006 5.587 4.533 10.114 10.12 10.12z" class="L"/><path d="M165.72 229.2a10.13 10.13 0 0 0-10.15 10.12h0 20.26a10.13 10.13 0 0 0-10.11-10.15z" class="J"/><path d="M165.68 249.47c5.596.006 10.139-4.524 10.15-10.12h0-20.27c0 5.594 4.526 10.133 10.12 10.15z" class="L"/><path d="M165.63 282h-17.21c-7.89 0-10.13-4.46-10.11-15.5m27.32 15.5h17.21c7.89 0 10.14-4.42 10.16-15.47" class="N O"/></g><g class="M H I"><path d="M222.57 306.127l.044-27.78 28.54.045-.044 27.78z" class="J"/><path d="M251.11 306.172l.044-27.78 9.76.015-.044 27.78z" class="L"/></g><path d="M222.57 306.13l-.03 18.31m28.57-18.26l-.03 18.31m-18.17-18.34l-.03 18.31m27.99-18.27l-.03 18.31" class="K N O H I"/><path d="M95.22 105.43l85.78.13s-42.82-44.18-85.78-.13z" class="H I J K"/><path d="M144.86 105.51l85.77.13s-42.82-44.18-85.77-.13z" class="H I K L"/><path d="M505 140.66l85.78.14S548 96.62 505 140.66z" class="H I J K"/><path d="M553.62 140.74l60.62.1s-30.24-31.23-60.62-.1z" class="H I K L"/><path d="M657.21 325.04H.89" class="H I K N O"/></svg>