<svg xmlns="http://www.w3.org/2000/svg" viewBox="0 0 115 26" xmlns:v="https://vecta.io/nano"><path d="M18.675 10.111V26H1.437A1.44 1.44 0 0 1 0 24.556V10.111h18.675z" fill="#ff5574"/><path d="M28.73 10.111v14.445A1.44 1.44 0 0 1 27.294 26h-5.746V10.111h7.182z" fill="#ffc043"/><path d="M27.294 0a1.44 1.44 0 0 1 1.436 1.444v5.778H0V1.444A1.44 1.44 0 0 1 1.437 0h25.857z" fill="#6168ff"/><path d="M44.974 21.879l9.18-12.012 2.641-3.161v-.085H45.813V3.629h15.466l-.042 2.318-9.053 11.844-2.6 3.2v.084h11.863v2.951H44.974v-2.147zm21.327-18.25h3.688v20.399h-3.688zM76.649 9.15l-.168-5.521h3.269L79.96 7h.084c1.347-2.427 3.931-3.905 6.706-3.835 2.808 0 7.168 1.686 7.168 8.682v12.181H90.23V12.269c0-3.287-1.217-6.027-4.7-6.027-2.303.042-4.309 1.581-4.946 3.794-.178.558-.263 1.142-.252 1.728v12.264h-3.683V9.15zm38.267 14.12c-1.831.82-3.821 1.223-5.827 1.18-6.119 0-10.1-4.173-10.1-10.411 0-6.28 4.276-10.832 10.9-10.832 1.76-.019 3.503.34 5.111 1.054l-.839 2.866c-1.316-.691-2.789-1.025-4.274-.97-4.653 0-7.168 3.456-7.168 7.713 0 4.72 3.018 7.629 7.042 7.629a10.44 10.44 0 0 0 4.526-1.011z" fill="#222"/></svg>