<svg xmlns="http://www.w3.org/2000/svg" viewBox="0 0 59.86 50" fill="#f62d00" xmlns:v="https://vecta.io/nano"><path d="M40.7 27.34a15.84 15.84 0 0 0 4.38.64 13.64 13.64 0 0 0 5.5-1.13c-1.38 5.06-4.7 13.79-11.31 14.77A1.58 1.58 0 0 0 38 42.75l-1.45 5.17a1.58 1.58 0 0 0 1.09 1.94h.21a10.41 10.41 0 0 0 1.48.1c7.93 0 15.8-8.28 19.11-20.14 2-7 2.52-17.42-2.28-24C53.47 2.17 49.55.2 44.52 0h-.06a13.93 13.93 0 0 0-3.76 27.34zM1.79 20.76a14 14 0 0 0 8.37 6.58 15.91 15.91 0 0 0 4.39.64 13.71 13.71 0 0 0 5.5-1.13c-1.39 5.06-4.71 13.79-11.32 14.77a1.58 1.58 0 0 0-1.28 1.13L6 47.92a1.58 1.58 0 0 0 1.09 1.94h.21a10.52 10.52 0 0 0 1.48.1c7.94 0 15.8-8.28 19.11-20.14 1.95-7 2.52-17.42-2.27-24C22.93 2.17 19 .2 14 0h-.06A13.93 13.93 0 0 0 1.79 20.76z"/></svg>